<svg xmlns="http://www.w3.org/2000/svg" viewBox="0 0 100 100" width="100" height="100">
  <!-- CPN Unified Socialist - Candle/Lamp (बत्ती) -->
  <circle cx="50" cy="50" r="48" fill="#990000" stroke="#770000" stroke-width="2"/>
  <!-- Open book / Torch base -->
  <path d="M35,72 L50,62 L65,72 Z" fill="#FFD700"/>
  <rect x="45" y="30" width="10" height="35" rx="2" fill="#FFD700"/>
  <!-- Flame -->
  <path d="M50,18 C45,25 42,28 44,34 C46,30 48,28 50,26 C52,28 54,30 56,34 C58,28 55,25 50,18 Z" 
        fill="#FF6600"/>
  <path d="M50,22 C48,26 46,28 47,32 C48,30 49,28 50,27 C51,28 52,30 53,32 C54,28 52,26 50,22 Z" 
        fill="#FFFF00"/>
  <!-- Hammer and sickle small -->
  <g transform="translate(50,55) scale(0.3)" fill="#990000">
    <rect x="-2" y="-12" width="4" height="24" rx="1"/>
    <rect x="-8" y="-12" width="16" height="5" rx="1"/>
    <path d="M4,4 C12,-4 14,-10 8,-14 L12,-14 C18,-8 14,0 6,8 Z"/>
  </g>
  <!-- Base platform -->
  <rect x="30" y="72" width="40" height="6" rx="3" fill="#FFD700"/>
</svg>